<?xml version="1.0" encoding="UTF-8"?>
<svg width="40px" height="40px" viewBox="0 0 40 40" version="1.1" xmlns="http://www.w3.org/2000/svg" xmlns:xlink="http://www.w3.org/1999/xlink">
    <!-- Generator: Sketch 64 (93537) - https://sketch.com -->
    <title>Group 14</title>
    <desc>Created with Sketch.</desc>
    <defs>
        <path d="M24,4 C12.96,4 4,12.96 4,24 C4,35.04 12.96,44 24,44 C35.04,44 44,35.04 44,24 C44,12.96 35.04,4 24,4 Z M24,40 C15.16,40 8,32.84 8,24 C8,20.3 9.26,16.9 11.38,14.2 L33.8,36.62 C31.1,38.74 27.7,40 24,40 Z M36.62,33.8 L14.2,11.38 C16.9,9.26 20.3,8 24,8 C32.84,8 40,15.16 40,24 C40,27.7 38.74,31.1 36.62,33.8 Z" id="path-1"></path>
    </defs>
    <g id="Page-2" stroke="none" stroke-width="1" fill="none" fill-rule="evenodd">
        <g id="Wireframe-–-Demo-Experimental-–-Green-–-v3" transform="translate(-1111.000000, -4749.000000)">
            <g id="Demo" transform="translate(0.000000, 4647.000000)">
                <g id="ico" transform="translate(809.000000, 60.000000)">
                    <g id="No-CC" transform="translate(260.000000, 16.000000)">
                        <g id="Group-14" transform="translate(38.000000, 22.000000)">
                            <path d="M17.71875,31.1953125 C19.3398438,31.1953125 20.6386719,30.7705078 21.6152344,29.9208984 C22.5917969,29.0712891 23.1516927,27.8880208 23.2949219,26.3710938 L23.2949219,26.3710938 L20.8339844,26.3710938 C20.703776,27.3867188 20.3945312,28.1126302 19.90625,28.5488281 C19.4179688,28.985026 18.6888021,29.203125 17.71875,29.203125 C16.6575521,29.203125 15.851888,28.7994792 15.3017578,27.9921875 C14.7516276,27.1848958 14.4765625,26.0130208 14.4765625,24.4765625 L14.4765625,24.4765625 L14.4765625,23.2167969 C14.4895833,21.6998698 14.7841797,20.5491536 15.3603516,19.7646484 C15.9365234,18.9801432 16.7617188,18.5878906 17.8359375,18.5878906 C18.7604167,18.5878906 19.4619141,18.8141276 19.9404297,19.2666016 C20.4189453,19.7190755 20.7167969,20.4563802 20.8339844,21.4785156 L20.8339844,21.4785156 L23.2949219,21.4785156 C23.1386719,19.922526 22.5820312,18.718099 21.625,17.8652344 C20.6679688,17.0123698 19.4049479,16.5859375 17.8359375,16.5859375 C16.6705729,16.5859375 15.6435547,16.8626302 14.7548828,17.4160156 C13.8662109,17.969401 13.1842448,18.7571615 12.7089844,19.7792969 C12.233724,20.8014323 11.9960938,21.9830729 11.9960938,23.3242188 L11.9960938,23.3242188 L11.9960938,24.6523438 C12.015625,25.9609375 12.2597656,27.110026 12.7285156,28.0996094 C13.1972656,29.0891927 13.8629557,29.8525391 14.7255859,30.3896484 C15.5882161,30.9267578 16.5859375,31.1953125 17.71875,31.1953125 Z M31.0253906,31.1953125 C32.6464844,31.1953125 33.9453125,30.7705078 34.921875,29.9208984 C35.8984375,29.0712891 36.4583333,27.8880208 36.6015625,26.3710938 L36.6015625,26.3710938 L34.140625,26.3710938 C34.0104167,27.3867188 33.7011719,28.1126302 33.2128906,28.5488281 C32.7246094,28.985026 31.9954427,29.203125 31.0253906,29.203125 C29.9641927,29.203125 29.1585286,28.7994792 28.6083984,27.9921875 C28.0582682,27.1848958 27.7832031,26.0130208 27.7832031,24.4765625 L27.7832031,24.4765625 L27.7832031,23.2167969 C27.796224,21.6998698 28.0908203,20.5491536 28.6669922,19.7646484 C29.2431641,18.9801432 30.0683594,18.5878906 31.1425781,18.5878906 C32.0670573,18.5878906 32.7685547,18.8141276 33.2470703,19.2666016 C33.7255859,19.7190755 34.0234375,20.4563802 34.140625,21.4785156 L34.140625,21.4785156 L36.6015625,21.4785156 C36.4453125,19.922526 35.8886719,18.718099 34.9316406,17.8652344 C33.9746094,17.0123698 32.7115885,16.5859375 31.1425781,16.5859375 C29.9772135,16.5859375 28.9501953,16.8626302 28.0615234,17.4160156 C27.1728516,17.969401 26.4908854,18.7571615 26.015625,19.7792969 C25.5403646,20.8014323 25.3027344,21.9830729 25.3027344,23.3242188 L25.3027344,23.3242188 L25.3027344,24.6523438 C25.3222656,25.9609375 25.5664062,27.110026 26.0351562,28.0996094 C26.5039062,29.0891927 27.1695964,29.8525391 28.0322266,30.3896484 C28.8948568,30.9267578 29.8925781,31.1953125 31.0253906,31.1953125 Z" id="CC" fill-opacity="0.6" fill="#000000" fill-rule="nonzero"></path>
                            <g id="icon/notification/do_disturb_24px">
                                <mask id="mask-2" fill="white">
                                    <use xlink:href="#path-1"></use>
                                </mask>
                                <g fill-rule="nonzero"></g>
                                <rect id="Color-/-Surface-/-Light" fill="#23B064" fill-rule="evenodd" mask="url(#mask-2)" x="0" y="0" width="48" height="48"></rect>
                            </g>
                        </g>
                    </g>
                </g>
            </g>
        </g>
    </g>
</svg>