<?xml version="1.0" encoding="UTF-8"?>
<svg width="42px" height="48px" viewBox="0 0 42 48" version="1.1" xmlns="http://www.w3.org/2000/svg" xmlns:xlink="http://www.w3.org/1999/xlink">
    <!-- Generator: Sketch 64 (93537) - https://sketch.com -->
    <title>icon/editor/money_off_24px</title>
    <desc>Created with Sketch.</desc>
    <defs>
        <path d="M33.12,18.4 C36.9066667,18.4 38.8,19.84 39.4933333,22.1333333 C39.84,23.28 40.9866667,24 42.1866667,24 L42.3466667,24 C44.2133333,24 45.6,22.1066667 44.9333333,20.3733333 C43.76,17.3066667 41.1733333,14.8266667 37.12,13.84 L37.12,12 C37.12,9.78666667 35.3333333,8 33.12,8 C30.9066667,8 29.12,9.78666667 29.12,12 L29.12,13.76 C28.08,13.9733333 27.12,14.32 26.1866667,14.72 L30.2133333,18.7466667 C31.0666667,18.5333333 32.0533333,18.4 33.12,18.4 Z M12.5066667,12.32 C11.4666667,13.36 11.4666667,15.04 12.5066667,16.08 L19.7866667,23.3866667 C19.7866667,28.9333333 23.9466667,31.9733333 30.2133333,33.8133333 L39.5733333,43.1733333 C38.6666667,44.48 36.7733333,45.6 33.12,45.6 C28.72,45.6 26.4533333,44.0266667 25.5733333,41.7866667 C25.1733333,40.7466667 24.2666667,40 23.1733333,40 L22.72,40 C20.8,40 19.4133333,41.9733333 20.1866667,43.7066667 C21.76,47.2533333 25.2266667,49.36 29.1466667,50.2133333 L29.1466667,52 C29.1466667,54.2133333 30.9333333,56 33.1466667,56 C35.36,56 37.1466667,54.2133333 37.1466667,52 L37.1466667,50.2666667 C39.7066667,49.7866667 42.0266667,48.8 43.7066667,47.28 L47.7333333,51.3066667 C48.7733333,52.3466667 50.4533333,52.3466667 51.4933333,51.3066667 C52.5333333,50.2666667 52.5333333,48.5866667 51.4933333,47.5466667 L16.2666667,12.32 C15.7684493,11.8206595 15.092047,11.5400384 14.3866667,11.5400384 C13.6812863,11.5400384 13.0048841,11.8206595 12.5066667,12.32 Z" id="path-1"></path>
    </defs>
    <g id="Page-2" stroke="none" stroke-width="1" fill="none" fill-rule="evenodd">
        <g id="Wireframe-–-Demo-Experimental-–-Green-–-v3" transform="translate(-979.000000, -4741.000000)">
            <g id="Demo" transform="translate(0.000000, 4647.000000)">
                <g id="ico" transform="translate(809.000000, 60.000000)">
                    <g id="Free" transform="translate(114.000000, 0.000000)">
                        <g id="icon/editor/money_off_24px" transform="translate(45.000000, 26.000000)">
                            <mask id="mask-2" fill="white">
                                <use xlink:href="#path-1"></use>
                            </mask>
                            <g fill-rule="nonzero"></g>
                            <rect id="Color-/-Surface-/-Light" fill="#23B064" fill-rule="evenodd" mask="url(#mask-2)" x="0" y="0" width="64" height="64"></rect>
                        </g>
                    </g>
                </g>
            </g>
        </g>
    </g>
</svg>