<?xml version="1.0" encoding="UTF-8"?>
<svg width="40px" height="40px" viewBox="0 0 40 40" version="1.1" xmlns="http://www.w3.org/2000/svg" xmlns:xlink="http://www.w3.org/1999/xlink">
    <!-- Generator: Sketch 64 (93537) - https://sketch.com -->
    <title>icon/social/mood_24px</title>
    <desc>Created with Sketch.</desc>
    <defs>
        <path d="M23.98,4 C12.94,4 4,12.96 4,24 C4,35.04 12.94,44 23.98,44 C35.04,44 44,35.04 44,24 C44,12.96 35.04,4 23.98,4 Z M24,40 C15.16,40 8,32.84 8,24 C8,15.16 15.16,8 24,8 C32.84,8 40,15.16 40,24 C40,32.84 32.84,40 24,40 Z M31,22 C32.66,22 34,20.66 34,19 C34,17.34 32.66,16 31,16 C29.34,16 28,17.34 28,19 C28,20.66 29.34,22 31,22 Z M17,22 C18.66,22 20,20.66 20,19 C20,17.34 18.66,16 17,16 C15.34,16 14,17.34 14,19 C14,20.66 15.34,22 17,22 Z M24,35 C28.06,35 31.6,32.78 33.5,29.5 C33.88,28.84 33.4,28 32.62,28 L15.38,28 C14.62,28 14.12,28.84 14.5,29.5 C16.4,32.78 19.94,35 24,35 Z" id="path-1"></path>
    </defs>
    <g id="Page-2" stroke="none" stroke-width="1" fill="none" fill-rule="evenodd">
        <g id="Wireframe-–-Demo-Experimental-–-Green-–-v3" transform="translate(-851.000000, -4749.000000)">
            <g id="Demo" transform="translate(0.000000, 4647.000000)">
                <g id="ico" transform="translate(809.000000, 60.000000)">
                    <g id="Stress-free" transform="translate(0.000000, 16.000000)">
                        <g id="icon/social/mood_24px" transform="translate(38.000000, 22.000000)">
                            <mask id="mask-2" fill="white">
                                <use xlink:href="#path-1"></use>
                            </mask>
                            <g fill-rule="nonzero"></g>
                            <rect id="Color-/-Surface-/-Light" fill="#23B064" fill-rule="evenodd" mask="url(#mask-2)" x="0" y="0" width="48" height="48"></rect>
                        </g>
                    </g>
                </g>
            </g>
        </g>
    </g>
</svg>