<?xml version="1.0" encoding="UTF-8"?>
<svg width="40px" height="38px" viewBox="0 0 40 38" version="1.1" xmlns="http://www.w3.org/2000/svg" xmlns:xlink="http://www.w3.org/1999/xlink">
    <!-- Generator: Sketch 64 (93537) - https://sketch.com -->
    <title>icon/action/work_24px</title>
    <desc>Created with Sketch.</desc>
    <defs>
        <path d="M40,13 L32,13 L32,9 C32,6.78 30.22,5 28,5 L20,5 C17.78,5 16,6.78 16,9 L16,13 L8,13 C5.78,13 4.02,14.78 4.02,17 L4,39 C4,41.22 5.78,43 8,43 L40,43 C42.22,43 44,41.22 44,39 L44,17 C44,14.78 42.22,13 40,13 Z M28,13 L20,13 L20,9 L28,9 L28,13 Z" id="path-1"></path>
    </defs>
    <g id="Page-2" stroke="none" stroke-width="1" fill="none" fill-rule="evenodd">
        <g id="Wireframe-–-Demo-Experimental-–-Green-–-v3" transform="translate(-1109.000000, -4204.000000)">
            <g id="Why-AM" transform="translate(0.000000, 3999.000000)">
                <g id="7" transform="translate(999.000000, 160.000000)">
                    <g id="icon/action/work_24px" transform="translate(106.000000, 40.000000)">
                        <mask id="mask-2" fill="white">
                            <use xlink:href="#path-1"></use>
                        </mask>
                        <g fill-rule="nonzero"></g>
                        <rect id="Color-/-Surface-/-Light" fill="#23B064" fill-rule="evenodd" mask="url(#mask-2)" x="0" y="0" width="48" height="48"></rect>
                    </g>
                </g>
            </g>
        </g>
    </g>
</svg>