<?xml version="1.0" encoding="UTF-8"?>
<svg width="14px" height="16px" viewBox="0 0 14 16" version="1.1" xmlns="http://www.w3.org/2000/svg" xmlns:xlink="http://www.w3.org/1999/xlink">
    <!-- Generator: sketchtool 64 (101010) - https://sketch.com -->
    <title>5FB55416-0298-4B21-A3B8-5DFB28DC97D8</title>
    <desc>Created with sketchtool.</desc>
    <g id="Page-3" stroke="none" stroke-width="1" fill="none" fill-rule="evenodd">
        <g id="HP-Green" transform="translate(-118.000000, -2542.000000)" fill="#FFFFFF">
            <g id="Download-MT" transform="translate(0.000000, 2086.000000)">
                <g id="Group-20" transform="translate(107.000000, 152.000000)">
                    <g id="Group-19">
                        <g id="Group-23" transform="translate(0.000000, 294.000000)">
                            <g id="macos">
                                <g id="os/apple" transform="translate(9.000000, 9.000000)">
                                    <path d="M15.375,12.0843803 C15.1370232,12.8343135 14.7617578,13.5842354 14.2491924,14.3341685 C13.4620384,15.5100638 12.6779472,16.0980025 11.8968952,16.0980025 C11.5978987,16.0980025 11.1707673,16.0020125 10.6154882,15.8100296 C10.0907188,15.6180468 9.63002711,15.5220567 9.23339914,15.5220567 C8.86117904,15.5220567 8.42794576,15.6210464 7.93368629,15.8190288 C7.43942682,16.0230106 7.03670292,16.125 6.72550251,16.125 C5.79800326,16.125 4.87967073,15.3480809 3.97047739,13.7942194 C3.07348798,12.2283589 2.625,10.719516 2.625,9.2676454 C2.625,7.8997673 2.96975606,6.77788411 3.65927854,5.90196217 C4.34269904,5.03803916 5.20916561,4.60608413 6.25870424,4.60608413 C6.69804599,4.60608413 7.23806212,4.69607476 7.87876884,4.87605872 C8.5133736,5.05604268 8.93440313,5.14603331 9.14187006,5.14603331 C9.41645866,5.14603331 9.85274288,5.04404393 10.4507358,4.84006211 C11.0731366,4.63608029 11.600949,4.53409091 12.0341888,4.53409091 C12.7603231,4.53409091 13.410173,4.72907061 13.9837581,5.11903586 C14.3010605,5.33501661 14.6183581,5.63498538 14.9356604,6.01895116 C14.4536049,6.42091534 14.1057979,6.77487848 13.892229,7.08085121 C13.495601,7.64480096 13.29729,8.26573631 13.29729,8.94367589 C13.29729,9.68760959 13.5078048,10.3565399 13.9288406,10.950487 C14.3498765,11.5444341 14.8319248,11.9223947 15.375,12.0843803 Z M11.9290541,1.51388889 C11.9290541,1.89043398 11.8392953,2.31018287 11.659775,2.77314815 C11.4740645,3.23611343 11.1862174,3.66203509 10.7962251,4.05092593 C10.4619461,4.38426093 10.127672,4.60648093 9.79339294,4.71759259 C9.56434988,4.78549417 9.24245635,4.83796278 8.8277027,4.875 C8.84627376,3.95524231 9.08769391,3.16204037 9.55197038,2.49537037 C10.0100565,1.83487324 10.783839,1.37808769 11.8733412,1.125 C11.8795315,1.14351861 11.8872693,1.17746889 11.8965549,1.22685185 C11.9058404,1.27623481 11.9135782,1.31018509 11.9197686,1.3287037 C11.9197686,1.35339519 11.9213161,1.38425907 11.9244113,1.4212963 C11.9275065,1.45833352 11.9290541,1.48919741 11.9290541,1.51388889 Z" id=""></path>
                                </g>
                            </g>
                        </g>
                    </g>
                </g>
            </g>
        </g>
    </g>
</svg>