<?xml version="1.0" encoding="UTF-8"?>
<svg width="60px" height="60px" viewBox="0 0 60 60" version="1.1" xmlns="http://www.w3.org/2000/svg" xmlns:xlink="http://www.w3.org/1999/xlink">
    <!-- Generator: Sketch 64 (93537) - https://sketch.com -->
    <title>icon</title>
    <desc>Created with Sketch.</desc>
    <g id="Page-2" stroke="none" stroke-width="1" fill="none" fill-rule="evenodd">
        <g id="Wireframe-–-Demo-Experimental-–-Green-–-v3" transform="translate(-535.000000, -2893.000000)">
            <g id="Instruments" transform="translate(0.000000, 2749.000000)">
                <g id="Group-15" transform="translate(107.000000, 122.000000)">
                    <g id="Group-39-Copy" transform="translate(398.000000, 0.000000)">
                        <g id="icon/instruments/indices/hover" transform="translate(24.000000, 16.000000)">
                            <g id="icon/instruments/-copy">
                                <g id="Elements/Icon-Blocks/Blue-Copy-2"></g>
                                <g id="graph" transform="translate(6.000000, 6.000000)" fill="#1E86FF" fill-rule="nonzero">
                                    <path d="M54,0 C57.3137085,0 60,2.6862915 60,6 L60,54 C60,57.3137085 57.3137085,60 54,60 L6,60 C2.6862915,60 0,57.3137085 0,54 L0,6 C0,2.6862915 2.6862915,0 6,0 L54,0 Z M54,2.7 L6,2.7 C4.17746033,2.7 2.7,4.17746033 2.7,6 L2.7,54 C2.7,55.8225397 4.17746033,57.3 6,57.3 L16.5,57.3 L16.5,28.5 L19.5,28.5 L19.5,57.3 L40.5,57.3 L40.5,42 L43.5,42 L43.5,57.3 L54,57.3 C55.8225397,57.3 57.3,55.8225397 57.3,54 L57.3,6 C57.3,4.17746033 55.8225397,2.7 54,2.7 Z" id="Combined-Shape" opacity="0.5"></path>
                                    <path d="M15.62,25.5817867 L15.6176471,25.5 C15.6176471,26.6757131 16.4693192,27.6525076 17.5893777,27.8470976 L2.7,40.7505353 L2.7,36.7851731 L15.62,25.5817867 Z M20.3480416,25.0948494 L41.1230947,36.7842215 C40.2412947,37.1334902 39.6176471,37.9939147 39.6176471,39 C39.6176471,39.1365322 39.6291323,39.2703818 39.6511893,39.4006355 L18.8808801,27.7142 C19.7605789,27.3639227 20.3823529,26.5045729 20.3823529,25.5 C20.3823529,25.3618898 20.3706007,25.2265244 20.3480416,25.0948494 Z M57.2934487,18.3047867 L57.2958059,22.9881078 L44.3377425,38.5387884 C44.1249881,37.4542065 43.1762653,36.6334119 42.033041,36.6178715 L57.2934487,18.3047867 Z" id="Combined-Shape"></path>
                                    <path d="M42.2142857,30.75 C42.9243661,30.75 43.5,31.3256339 43.5,32.0357143 L43.5,32.4642857 C43.5,33.1743661 42.9243661,33.75 42.2142857,33.75 L41.7857143,33.75 C41.0756339,33.75 40.5,33.1743661 40.5,32.4642857 L40.5,32.0357143 C40.5,31.3256339 41.0756339,30.75 41.7857143,30.75 L42.2142857,30.75 Z M42.2142857,26.25 C42.9243661,26.25 43.5,26.8256339 43.5,27.5357143 L43.5,27.9642857 C43.5,28.6743661 42.9243661,29.25 42.2142857,29.25 L41.7857143,29.25 C41.0756339,29.25 40.5,28.6743661 40.5,27.9642857 L40.5,27.5357143 C40.5,26.8256339 41.0756339,26.25 41.7857143,26.25 L42.2142857,26.25 Z M42.2142857,21.75 C42.9243661,21.75 43.5,22.3256339 43.5,23.0357143 L43.5,23.4642857 C43.5,24.1743661 42.9243661,24.75 42.2142857,24.75 L41.7857143,24.75 C41.0756339,24.75 40.5,24.1743661 40.5,23.4642857 L40.5,23.0357143 C40.5,22.3256339 41.0756339,21.75 41.7857143,21.75 L42.2142857,21.75 Z M18.2142857,17.25 C18.9243661,17.25 19.5,17.8256339 19.5,18.5357143 L19.5,18.9642857 C19.5,19.6743661 18.9243661,20.25 18.2142857,20.25 L17.7857143,20.25 C17.0756339,20.25 16.5,19.6743661 16.5,18.9642857 L16.5,18.5357143 C16.5,17.8256339 17.0756339,17.25 17.7857143,17.25 L18.2142857,17.25 Z M42.2142857,17.25 C42.9243661,17.25 43.5,17.8256339 43.5,18.5357143 L43.5,18.9642857 C43.5,19.6743661 42.9243661,20.25 42.2142857,20.25 L41.7857143,20.25 C41.0756339,20.25 40.5,19.6743661 40.5,18.9642857 L40.5,18.5357143 C40.5,17.8256339 41.0756339,17.25 41.7857143,17.25 L42.2142857,17.25 Z M18.2142857,12.75 C18.9243661,12.75 19.5,13.3256339 19.5,14.0357143 L19.5,14.4642857 C19.5,15.1743661 18.9243661,15.75 18.2142857,15.75 L17.7857143,15.75 C17.0756339,15.75 16.5,15.1743661 16.5,14.4642857 L16.5,14.0357143 C16.5,13.3256339 17.0756339,12.75 17.7857143,12.75 L18.2142857,12.75 Z M42.2142857,12.75 C42.9243661,12.75 43.5,13.3256339 43.5,14.0357143 L43.5,14.4642857 C43.5,15.1743661 42.9243661,15.75 42.2142857,15.75 L41.7857143,15.75 C41.0756339,15.75 40.5,15.1743661 40.5,14.4642857 L40.5,14.0357143 C40.5,13.3256339 41.0756339,12.75 41.7857143,12.75 L42.2142857,12.75 Z M18.2142857,8.25 C18.9243661,8.25 19.5,8.82563389 19.5,9.53571429 L19.5,9.96428571 C19.5,10.6743661 18.9243661,11.25 18.2142857,11.25 L17.7857143,11.25 C17.0756339,11.25 16.5,10.6743661 16.5,9.96428571 L16.5,9.53571429 C16.5,8.82563389 17.0756339,8.25 17.7857143,8.25 L18.2142857,8.25 Z M42.2142857,8.25 C42.9243661,8.25 43.5,8.82563389 43.5,9.53571429 L43.5,9.96428571 C43.5,10.6743661 42.9243661,11.25 42.2142857,11.25 L41.7857143,11.25 C41.0756339,11.25 40.5,10.6743661 40.5,9.96428571 L40.5,9.53571429 C40.5,8.82563389 41.0756339,8.25 41.7857143,8.25 L42.2142857,8.25 Z M18.2142857,3.75 C18.9243661,3.75 19.5,4.32563389 19.5,5.03571429 L19.5,5.46428571 C19.5,6.17436611 18.9243661,6.75 18.2142857,6.75 L17.7857143,6.75 C17.0756339,6.75 16.5,6.17436611 16.5,5.46428571 L16.5,5.03571429 C16.5,4.32563389 17.0756339,3.75 17.7857143,3.75 L18.2142857,3.75 Z M42.2142857,3.75 C42.9243661,3.75 43.5,4.32563389 43.5,5.03571429 L43.5,5.46428571 C43.5,6.17436611 42.9243661,6.75 42.2142857,6.75 L41.7857143,6.75 C41.0756339,6.75 40.5,6.17436611 40.5,5.46428571 L40.5,5.03571429 C40.5,4.32563389 41.0756339,3.75 41.7857143,3.75 L42.2142857,3.75 Z" id="Combined-Shape"></path>
                                    <path d="M42,34.5 C44.4852814,34.5 46.5,36.5147186 46.5,39 C46.5,41.4852814 44.4852814,43.5 42,43.5 C39.5147186,43.5 37.5,41.4852814 37.5,39 C37.5,36.5147186 39.5147186,34.5 42,34.5 Z M42,36.6176471 C40.6842628,36.6176471 39.6176471,37.6842628 39.6176471,39 C39.6176471,40.3157372 40.6842628,41.3823529 42,41.3823529 C43.3157372,41.3823529 44.3823529,40.3157372 44.3823529,39 C44.3823529,37.6842628 43.3157372,36.6176471 42,36.6176471 Z M18,21 C20.4852814,21 22.5,23.0147186 22.5,25.5 C22.5,27.9852814 20.4852814,30 18,30 C15.5147186,30 13.5,27.9852814 13.5,25.5 C13.5,23.0147186 15.5147186,21 18,21 Z M18,23.1176471 C16.6842628,23.1176471 15.6176471,24.1842628 15.6176471,25.5 C15.6176471,26.8157372 16.6842628,27.8823529 18,27.8823529 C19.3157372,27.8823529 20.3823529,26.8157372 20.3823529,25.5 C20.3823529,24.1842628 19.3157372,23.1176471 18,23.1176471 Z" id="Combined-Shape-Copy"></path>
                                </g>
                            </g>
                        </g>
                    </g>
                </g>
            </g>
        </g>
    </g>
</svg>