<?xml version="1.0" encoding="UTF-8"?>
<svg width="50px" height="54px" viewBox="0 0 50 54" version="1.1" xmlns="http://www.w3.org/2000/svg" xmlns:xlink="http://www.w3.org/1999/xlink">
    <!-- Generator: Sketch 64 (93537) - https://sketch.com -->
    <title>icon</title>
    <desc>Created with Sketch.</desc>
    <g id="Page-2" stroke="none" stroke-width="1" fill="none" fill-rule="evenodd">
        <g id="Wireframe-–-Demo-Experimental-–-Green-–-v3" transform="translate(-936.000000, -2896.000000)" fill="#1E86FF">
            <g id="Instruments" transform="translate(0.000000, 2749.000000)">
                <g id="Group-15" transform="translate(107.000000, 122.000000)">
                    <g id="Group-39-Copy-2" transform="translate(795.000000, 0.000000)">
                        <g id="icon/instruments/stocks/hover" transform="translate(24.000000, 16.000000)">
                            <g id="icon/instruments/">
                                <g id="Group" transform="translate(10.500000, 9.000000)">
                                    <g id="Group-2" transform="translate(0.000000, 33.000000)" fill-rule="nonzero">
                                        <path d="M6,4.5 C6,5.32842712 5.32842712,6 4.5,6 C3.67157288,6 3,5.32842712 3,4.5 L3,1.5 C3,0.671572875 3.67157288,0 4.5,0 C5.32842712,0 6,0.671572875 6,1.5 L6,4.5 Z" id="Stroke-3" opacity="0.5"></path>
                                        <path d="M6,19.5 C6,20.3284271 5.32842712,21 4.5,21 C3.67157288,21 3,20.3284271 3,19.5 L3,16.5 C3,15.6715729 3.67157288,15 4.5,15 C5.32842712,15 6,15.6715729 6,16.5 L6,19.5 Z" id="Stroke-4" opacity="0.5"></path>
                                        <path d="M3,13.5 L6,13.5 L6,7.5 L3,7.5 L3,13.5 Z M0,15.0044548 L0,5.99554521 C0,5.17955446 0.66537961,4.5 1.48616695,4.5 L7.51383305,4.5 C8.32353723,4.5 9,5.1695784 9,5.99554521 L9,15.0044548 C9,15.8204455 8.33462039,16.5 7.51383305,16.5 L1.48616695,16.5 C0.67646277,16.5 0,15.8304216 0,15.0044548 Z" id="Stroke-1"></path>
                                    </g>
                                    <g id="Group-3" transform="translate(13.500000, 12.000000)">
                                        <path d="M6,7.5 C6,8.32842712 5.32842712,9 4.5,9 C3.67157288,9 3,8.32842712 3,7.5 L3,1.5 C3,0.671572875 3.67157288,0 4.5,0 C5.32842712,0 6,0.671572875 6,1.5 L6,7.5 Z" id="Stroke-7" fill-rule="nonzero" opacity="0.5"></path>
                                        <path d="M6,40.5 C6,41.3284271 5.32842712,42 4.5,42 C3.67157288,42 3,41.3284271 3,40.5 L3,34.5 C3,33.6715729 3.67157288,33 4.5,33 C5.32842712,33 6,33.6715729 6,34.5 L6,40.5 Z" id="Stroke-8" fill-rule="nonzero" opacity="0.5"></path>
                                        <path d="M0,33.2158979 C0,33.9250879 0.57668151,34.5 1.28948057,34.5 L7.71051943,34.5 C8.42267989,34.5 9,33.9235755 9,33.2158979 L9,8.78410212 C9,8.0749121 8.42331849,7.5 7.71051943,7.5 L1.28948057,7.5 C0.577320115,7.5 0,8.0764245 0,8.78410212 L0,33.2158979 Z" id="Stroke-6"></path>
                                    </g>
                                    <g id="Group-4" transform="translate(27.000000, 0.000000)" fill-rule="nonzero">
                                        <path d="M6,40.5 C6,41.3284271 5.32842712,42 4.5,42 C3.67157288,42 3,41.3284271 3,40.5 L3,34.5 C3,33.6715729 3.67157288,33 4.5,33 C5.32842712,33 6,33.6715729 6,34.5 L6,40.5 Z" id="Stroke-11" opacity="0.5"></path>
                                        <path d="M3,7.5 L3,1.5 C3,-0.5 6,-0.5 6,1.5 L6,7.5 C6,9.5 3,9.5 3,7.5 Z" id="Stroke-12" opacity="0.5"></path>
                                        <path d="M3,31.5 L6,31.5 L6,10.5 L3,10.5 L3,31.5 Z M0,33.0099035 L0,8.99009652 C0,8.16741943 0.66537961,7.5 1.48616695,7.5 L7.51383305,7.5 C8.32353723,7.5 9,8.16713894 9,8.99009652 L9,33.0099035 C9,33.8325806 8.33462039,34.5 7.51383305,34.5 L1.48616695,34.5 C0.67646277,34.5 0,33.8328611 0,33.0099035 Z" id="Stroke-10"></path>
                                    </g>
                                    <g id="Group-5" transform="translate(40.500000, 0.000000)">
                                        <path d="M6,19.5 C6,20.3284271 5.32842712,21 4.5,21 C3.67157288,21 3,20.3284271 3,19.5 L3,16.5 C3,15.6715729 3.67157288,15 4.5,15 C5.32842712,15 6,15.6715729 6,16.5 L6,19.5 Z" id="Stroke-16" fill-rule="nonzero" opacity="0.5"></path>
                                        <path d="M6,4.5 C6,5.32842712 5.32842712,6 4.5,6 C3.67157288,6 3,5.32842712 3,4.5 L3,1.5 C3,0.671572875 3.67157288,0 4.5,0 C5.32842712,0 6,0.671572875 6,1.5 L6,4.5 Z" id="Stroke-17" fill-rule="nonzero" opacity="0.5"></path>
                                        <path d="M0,15.2157898 C0,15.9250395 0.57668151,16.5 1.28948057,16.5 L7.71051943,16.5 C8.42267989,16.5 9,15.9212151 9,15.2157898 L9,5.78421021 C9,5.07496049 8.42331849,4.5 7.71051943,4.5 L1.28948057,4.5 C0.577320115,4.5 0,5.07878494 0,5.78421021 L0,15.2157898 Z" id="Stroke-14"></path>
                                    </g>
                                </g>
                            </g>
                        </g>
                    </g>
                </g>
            </g>
        </g>
    </g>
</svg>