<?xml version="1.0" encoding="UTF-8"?>
<svg width="60px" height="64px" viewBox="0 0 60 64" version="1.1" xmlns="http://www.w3.org/2000/svg" xmlns:xlink="http://www.w3.org/1999/xlink">
    <!-- Generator: Sketch 64 (93537) - https://sketch.com -->
    <title>icon</title>
    <desc>Created with Sketch.</desc>
    <g id="Page-2" stroke="none" stroke-width="1" fill="none" fill-rule="evenodd">
        <g id="Wireframe-–-Demo-Experimental-–-Green-–-v3" transform="translate(-137.000000, -2891.000000)" fill="#1E86FF">
            <g id="Instruments" transform="translate(0.000000, 2749.000000)">
                <g id="Group-15" transform="translate(107.000000, 122.000000)">
                    <g id="Group-39">
                        <g id="icon/instruments/forex/hover" transform="translate(24.000000, 16.000000)">
                            <g id="icon">
                                <g id="euro" transform="translate(33.000000, 33.000000)" fill-rule="nonzero">
                                    <path d="M16.5,0 C25.6126984,0 33,7.38730163 33,16.5 C33,25.6126984 25.6126984,33 16.5,33 C7.38730163,33 0,25.6126984 0,16.5 C0,7.38730163 7.38730163,0 16.5,0 Z M16.5,3 C9.04415588,3 3,9.04415588 3,16.5 C3,23.9558441 9.04415588,30 16.5,30 C23.9558441,30 30,23.9558441 30,16.5 C30,9.04415588 23.9558441,3 16.5,3 Z" id="Combined-Shape" opacity="0.5"></path>
                                    <path d="M11.2034211,15.5 L11.1315789,16.5 L11.2034211,17.5 L21.7539474,17.5 L20.8815789,19.5 L11.8192105,19.5 C12.9789474,21.86 15.4523684,23.5 18.3157895,23.5 C20.6044737,23.5 22.6468421,22.46 23.9605263,20.83 L23.9605263,23.62 C22.4210526,24.8 20.4402632,25.5 18.3157895,25.5 C14.2926316,25.5 10.875,23 9.59210526,19.5 L6,19.5 L7.02631579,17.5 L9.13026316,17.5 L9.07894737,16.5 L9.13026316,15.5 L6,15.5 L7.02631579,13.5 L9.59210526,13.5 C10.875,10 14.2926316,7.5 18.3157895,7.5 C20.8815789,7.5 23.2421053,8.54 24.915,10.21 L24.0323684,12.25 C22.7186842,10.58 20.6455263,9.5 18.3157895,9.5 C15.4523684,9.5 12.9789474,11.14 11.8192105,13.5 L23.4884211,13.5 L22.6160526,15.5 L11.2034211,15.5 Z" id="Shape"></path>
                                </g>
                                <g id="usd" transform="translate(6.000000, 6.000000)" fill-rule="nonzero">
                                    <path d="M16.5,0 C25.6126984,0 33,7.38730163 33,16.5 C33,25.6126984 25.6126984,33 16.5,33 C7.38730163,33 0,25.6126984 0,16.5 C0,7.38730163 7.38730163,0 16.5,0 Z M16.5,3 C9.04415588,3 3,9.04415588 3,16.5 C3,23.9558441 9.04415588,30 16.5,30 C23.9558441,30 30,23.9558441 30,16.5 C30,9.04415588 23.9558441,3 16.5,3 Z" id="Combined-Shape" opacity="0.5"></path>
                                    <path d="M12,19.5 L13.8,19.5 C13.8,20.58 15.033,21.5 16.5,21.5 C17.967,21.5 19.2,20.58 19.2,19.5 C19.2,18.4 18.264,18 16.284,17.47 C14.376,16.94 12,16.28 12,13.5 C12,11.71 13.323,10.19 15.15,9.68 L15.15,7.5 L17.85,7.5 L17.85,9.68 C19.677,10.19 21,11.71 21,13.5 L19.2,13.5 C19.2,12.42 17.967,11.5 16.5,11.5 C15.033,11.5 13.8,12.42 13.8,13.5 C13.8,14.6 14.736,15 16.716,15.53 C18.624,16.06 21,16.72 21,19.5 C21,21.29 19.677,22.81 17.85,23.32 L17.85,25.5 L15.15,25.5 L15.15,23.32 C13.323,22.81 12,21.29 12,19.5 Z" id="Shape"></path>
                                </g>
                                <g id="arrow" transform="translate(43.500000, 4.500000)" fill-rule="nonzero">
                                    <path d="M7.01802659,0.478146582 C7.60401143,1.06373455 7.60433315,2.01348196 7.01874519,2.5994668 L5.01661509,4.60301074 C14.8386418,5.61214137 22.5,13.9113676 22.5,24 C22.5,24.8284271 21.8284271,25.5 21,25.5 C20.1715729,25.5 19.5,24.8284271 19.5,24 C19.5,15.6592702 13.3112926,8.76399041 5.27531727,7.6556001 L7.02907823,9.41087325 C7.6146662,9.99685809 7.61434447,10.9466055 7.02835963,11.5321935 C6.44237479,12.1177814 5.49262738,12.1174597 4.90703941,11.5314749 L0.438893555,7.06030081 C-0.146413898,6.47459668 -0.146413898,5.52540332 0.438893555,4.93969919 L4.89670637,0.478865181 C5.48229433,-0.107119659 6.43204175,-0.107441387 7.01802659,0.478146582 Z" id="Combined-Shape"></path>
                                </g>
                                <g id="arrow" transform="translate(16.833333, 54.666667) scale(-1, -1) translate(-16.833333, -54.666667) translate(5.166667, 41.833333)" fill-rule="nonzero">
                                    <path d="M7.01802659,0.478146582 C7.60401143,1.06373455 7.60433315,2.01348196 7.01874519,2.5994668 L5.01661509,4.60301074 C14.8386418,5.61214137 22.5,13.9113676 22.5,24 C22.5,24.8284271 21.8284271,25.5 21,25.5 C20.1715729,25.5 19.5,24.8284271 19.5,24 C19.5,15.6592702 13.3112926,8.76399041 5.27531727,7.6556001 L7.02907823,9.41087325 C7.6146662,9.99685809 7.61434447,10.9466055 7.02835963,11.5321935 C6.44237479,12.1177814 5.49262738,12.1174597 4.90703941,11.5314749 L0.438893555,7.06030081 C-0.146413898,6.47459668 -0.146413898,5.52540332 0.438893555,4.93969919 L4.89670637,0.478865181 C5.48229433,-0.107119659 6.43204175,-0.107441387 7.01802659,0.478146582 Z" id="Combined-Shape"></path>
                                </g>
                            </g>
                        </g>
                    </g>
                </g>
            </g>
        </g>
    </g>
</svg>