<?xml version="1.0" encoding="UTF-8"?>
<svg width="54px" height="54px" viewBox="0 0 54 54" version="1.1" xmlns="http://www.w3.org/2000/svg" xmlns:xlink="http://www.w3.org/1999/xlink">
    <!-- Generator: Sketch 64 (93537) - https://sketch.com -->
    <title>icon</title>
    <desc>Created with Sketch.</desc>
    <g id="Page-2" stroke="none" stroke-width="1" fill="none" fill-rule="evenodd">
        <g id="Wireframe-–-Demo-Experimental-–-Green-–-v3" transform="translate(-140.000000, -3024.000000)" fill="#1E86FF">
            <g id="Instruments" transform="translate(0.000000, 2749.000000)">
                <g id="Group-15" transform="translate(107.000000, 122.000000)">
                    <g id="Group-39-Copy-3" transform="translate(0.000000, 128.000000)">
                        <g id="icon/instruments/commodities/hover" transform="translate(24.000000, 16.000000)">
                            <g id="icon/instruments/">
                                <g id="Group-6" transform="translate(9.000000, 9.000000)" fill-rule="nonzero">
                                    <path d="M17.5909091,9 C23.6735333,9 28.5,14.0265028 28.5,20.6666667 L28.5,30 L15.4090909,30 C9.32685708,30 4.5,24.9734972 4.5,18.3333333 L4.5,10.2857143 C4.5,9.57563389 5.07563389,9 5.78571429,9 L17.5909091,9 Z M17.3181818,12 L8.78571429,12 C8.07563389,12 7.5,12.5756339 7.5,13.2857143 L7.5,13.2857143 L7.5,18.6666667 C7.5,23.4096409 11.1201428,27 15.6818182,27 L15.6818182,27 L25.5,27 L25.5,20.3333333 C25.5,15.5903591 21.88015,12 17.3181818,12 L17.3181818,12 Z" id="Combined-Shape" opacity="0.5"></path>
                                    <path d="M42.2142857,0 C42.9243661,-1.30439652e-16 43.5,0.575633893 43.5,1.28571429 L43.5,10.8333333 C43.5,16.0511968 39.9138519,19.5 34.5,19.5 L28.5,19.5 L28.5,45 L25.5,45 L25.5,8.66666667 C25.5004147,3.44880319 29.0865628,0 34.5,0 L42.2142857,0 Z M39.2142857,3 L34.5,3 C30.8910419,3 28.5002765,5.38763298 28.5,9 L28.5,9 L28.5,16.5 L34.5,16.5 C38.1092346,16.5 40.5,14.112367 40.5,10.5 L40.5,10.5 L40.5,4.28571429 C40.5,3.57563389 39.9243661,3 39.2142857,3 L39.2142857,3 Z" id="Combined-Shape"></path>
                                    <path d="M6.71166292,51 L47.2883371,51 C40.4939771,47.9938713 33.7368595,46.5 27,46.5 C20.2631405,46.5 13.5060229,47.9938713 6.71166292,51 Z M0,51 C9,46 18,43.5 27,43.5 C36,43.5 45,46 54,51 C54,51 54,52 54,54 L0,54 L0,51 Z" id="Rectangle-4"></path>
                                </g>
                            </g>
                        </g>
                    </g>
                </g>
            </g>
        </g>
    </g>
</svg>