<?xml version="1.0" encoding="UTF-8"?>
<svg width="56px" height="53px" viewBox="0 0 56 53" version="1.1" xmlns="http://www.w3.org/2000/svg" xmlns:xlink="http://www.w3.org/1999/xlink">
    <!-- Generator: Sketch 64 (93537) - https://sketch.com -->
    <title>icon</title>
    <desc>Created with Sketch.</desc>
    <g id="Page-2" stroke="none" stroke-width="1" fill="none" fill-rule="evenodd">
        <g id="Wireframe-–-Demo-Experimental-–-Green-–-v3" transform="translate(-538.000000, -3157.000000)" fill="#1E86FF">
            <g id="Instruments" transform="translate(0.000000, 2749.000000)">
                <g id="Group-15" transform="translate(107.000000, 122.000000)">
                    <g id="Group-39-Copy-6" transform="translate(398.000000, 260.000000)">
                        <g id="icon/instruments/Cryptocurrency/hover" transform="translate(24.000000, 16.000000)">
                            <g id="Group-2" transform="translate(9.000000, 10.500000)">
                                <path d="M40.6500001,0.150000036 C42.8867532,0.150000036 44.7,1.96324675 44.7,4.19999993 L44.7,8.19473691 C44.7,8.91704731 44.51091,9.59519338 44.1795306,10.1823746 C45.3043731,10.9002187 46.05,12.1604025 46.05,13.5947368 L46.0499286,15.3358817 C45.1911927,14.7965969 44.288844,14.3197245 43.3493298,13.9116743 L43.35,13.5947368 C43.35,12.8491524 42.7455845,12.2447368 42.0000001,12.2447368 L35.7862772,12.2437646 C35.6080816,12.2391591 35.429313,12.2368421 35.25,12.2368421 C35.070687,12.2368421 34.8919184,12.2391591 34.7137228,12.2437646 L6.89999993,12.2447368 C6.15441554,12.2447368 5.54999996,12.8491524 5.54999996,13.5947368 L5.54999996,17.5894738 C5.54999996,18.3350581 6.15441554,18.9394737 6.89999993,18.9394737 L20.1635296,18.9393215 C19.406961,19.7787817 18.7202458,20.6817542 18.1124708,21.6392054 L5.54999993,21.6394736 C4.80441554,21.6394736 4.19999996,22.2438892 4.19999996,22.9894736 L4.19999996,26.9842106 C4.19999996,27.729795 4.80441554,28.3342106 5.54999993,28.3342106 L15.4065917,28.3346763 C15.2265008,29.2149725 15.1041915,30.1161439 15.0437719,31.0341065 L4.19999993,31.0342105 C3.45441554,31.0342105 2.84999996,31.6386261 2.84999996,32.3842105 L2.84999996,36.3789474 C2.84999996,37.1245318 3.45441554,37.7289474 4.19999993,37.7289474 L15.7257124,37.7287246 C15.9830529,38.6571934 16.3056086,39.5587847 16.688174,40.4283233 L5.54999993,40.4289473 C4.80441554,40.4289473 4.19999996,41.0333629 4.19999996,41.7789473 L4.19999996,45.7736843 C4.19999996,46.5192687 4.80441554,47.1236842 5.54999993,47.1236842 L21.474472,47.1241583 C22.5912031,48.1550244 23.8251382,49.0621254 25.1542011,49.823514 L5.54999993,49.8236842 C3.31324675,49.8236842 1.50000004,48.0104375 1.50000004,45.7736843 L1.50000004,41.7789473 C1.50000004,41.0570452 1.68887629,40.3792575 2.01990757,39.7923055 C0.895626879,39.0734655 0.150000036,37.8132817 0.150000036,36.3789474 L0.150000036,32.3842105 C0.150000036,30.9498762 0.895626879,29.6896924 2.02041718,28.9701224 C1.68887629,28.3839004 1.50000004,27.7061127 1.50000004,26.9842106 L1.50000004,22.9894736 C1.50000004,21.5551393 2.24562688,20.2949555 3.37041718,19.5753856 C3.03887629,18.9891635 2.85000004,18.3113758 2.85000004,17.5894738 L2.85000004,13.5947368 C2.85000004,12.8728347 3.03887629,12.195047 3.36990757,11.608095 C2.24562688,10.889255 1.50000004,9.6290712 1.50000004,8.19473691 L1.50000004,4.19999993 C1.50000004,1.96324675 3.31324675,0.150000036 5.54999993,0.150000036 L40.6500001,0.150000036 Z M40.6500001,2.84999996 L5.54999993,2.84999996 C4.80441554,2.84999996 4.19999996,3.45441554 4.19999996,4.19999993 L4.19999996,8.19473691 C4.19999996,8.94032131 4.80441554,9.54473688 5.54999993,9.54473688 L40.6500001,9.54473688 C41.3955845,9.54473688 42,8.94032131 42,8.19473691 L42,4.19999993 C42,3.45441554 41.3955845,2.84999996 40.6500001,2.84999996 Z" id="Combined-Shape" fill-rule="nonzero" opacity="0.5"></path>
                                <path d="M35.25,49.8000001 C44.9461308,49.8000001 52.8000001,41.9920599 52.8000001,32.3684211 C52.8000001,22.7447822 44.9461308,14.936842 35.25,14.936842 C25.5538692,14.936842 17.6999999,22.7447822 17.6999999,32.3684211 C17.6999999,41.9920599 25.5538692,49.8000001 35.25,49.8000001 Z M35.25,52.5 C24.0662338,52.5 15,43.4867851 15,32.3684211 C15,21.250057 24.0662338,12.2368421 35.25,12.2368421 C46.4337662,12.2368421 55.5,21.250057 55.5,32.3684211 C55.5,43.4867851 46.4337662,52.5 35.25,52.5 Z" id="Oval-2-Copy" fill-rule="nonzero"></path>
                                <path d="M40.3052303,24.1178434 L41.1929781,20.4883801 L39.0248487,19.9377941 L38.1605602,23.4716127 C37.5913645,23.3268872 37.0061177,23.1903419 36.424575,23.055055 L37.295037,19.4979545 L35.1287596,18.9473684 L34.2403945,22.5755732 C33.7687399,22.4660853 33.3057282,22.3578558 32.8562982,22.2439631 L29.8695641,21.4718842 L29.2929602,23.8315387 C29.2929602,23.8315387 30.9011542,24.2071957 30.8672,24.2304776 C31.7450701,24.4538582 31.9043462,25.0459742 31.8771828,25.5153882 L29.4448281,35.4580285 C29.3374093,35.7298607 29.0651585,36.137609 28.4515136,35.9828157 C28.4731208,36.014907 26.8760392,35.581989 26.8760392,35.581989 L25.8,38.1115387 L28.6212846,38.8282444 C29.1460312,38.9622728 29.6602828,39.1025936 30.1658916,39.2347342 L29.2688836,42.9063567 L31.4339263,43.4569428 L32.3229087,39.8249625 C32.9137117,39.9885652 33.4878462,40.1395831 34.0496337,40.2817916 L33.1643553,43.8967824 L35.3318674,44.4473684 L36.2288754,40.7832969 C39.9249434,41.4962272 42.7048656,41.2086639 43.8735071,37.801952 C44.8161989,35.0584603 43.827206,33.4759187 41.8825568,32.4433339 C43.2987553,32.1092068 44.3655342,31.1596818 44.6501321,29.198337 C45.0433833,26.5190279 43.0419381,25.0786948 40.3052303,24.1178434 Z M33.0260692,37.1651599 L34.2163179,32.3017546 C35.6856083,32.6755239 40.396598,33.4155115 39.6983763,36.2766713 C39.0273181,39.020163 34.495977,37.5376707 33.0260692,37.1651599 Z M34.7602023,30.0754992 L35.8393282,25.6645183 C37.0635311,25.9753635 41.0046867,26.5555239 40.3675826,29.1586948 C39.7564071,31.6542654 35.9844052,30.3863444 34.7602023,30.0754992 Z" id="Shape" fill-rule="nonzero"></path>
                            </g>
                        </g>
                    </g>
                </g>
            </g>
        </g>
    </g>
</svg>