<?xml version="1.0" encoding="UTF-8"?>
<svg width="54px" height="54px" viewBox="0 0 54 54" version="1.1" xmlns="http://www.w3.org/2000/svg" xmlns:xlink="http://www.w3.org/1999/xlink">
    <!-- Generator: Sketch 64 (93537) - https://sketch.com -->
    <title>icon</title>
    <desc>Created with Sketch.</desc>
    <g id="Page-2" stroke="none" stroke-width="1" fill="none" fill-rule="evenodd">
        <g id="Wireframe-–-Demo-Experimental-–-Green-–-v3" transform="translate(-935.000000, -3024.000000)">
            <g id="Instruments" transform="translate(0.000000, 2749.000000)">
                <g id="Group-15" transform="translate(107.000000, 122.000000)">
                    <g id="Group-39-Copy-4" transform="translate(795.000000, 128.000000)">
                        <g id="icon/instruments/etfs/hover" transform="translate(24.000000, 16.000000)">
                            <g id="icon/instruments/">
                                <line x1="49.5" y1="10.5" x2="61.5" y2="22.5" id="Stroke-3" stroke="#1E86FF" stroke-width="2.57142857" stroke-linecap="round" stroke-linejoin="round"></line>
                                <line x1="61.5" y1="22.5" x2="25.5" y2="22.5" id="Stroke-3-Copy-2" stroke="#1E86FF" stroke-width="2.57142857" opacity="0.5" stroke-linecap="round" stroke-linejoin="round"></line>
                                <line x1="46.5" y1="49.5" x2="10.5" y2="49.5" id="Stroke-3-Copy" stroke="#1E86FF" stroke-width="2.57142857" opacity="0.5" stroke-linecap="round" stroke-linejoin="round" transform="translate(28.500000, 49.500000) scale(-1, 1) translate(-28.500000, -49.500000) "></line>
                                <line x1="10.5" y1="61.5" x2="22.5" y2="49.5" id="Stroke-3-Copy-3" stroke="#1E86FF" stroke-width="2.57142857" stroke-linecap="round" stroke-linejoin="round" transform="translate(16.500000, 55.500000) scale(-1, 1) translate(-16.500000, -55.500000) "></line>
                                <g id="Group-5" transform="translate(12.000000, 28.500000)" fill="#1E86FF">
                                    <path d="M9.03675345,0 C9.64062988,3.33158909e-16 10.1301685,0.489538574 10.1301685,1.09341501 C10.1301685,1.69729144 9.64062988,2.18683002 9.03675345,2.18683002 L2.71209801,2.18683002 L2.71209801,6.49617152 L8.05053599,6.49617152 C8.64257171,6.49617152 9.12251149,6.97611129 9.12251149,7.56814701 C9.12251149,8.16018273 8.64257171,8.64012251 8.05053599,8.64012251 L2.71209801,8.64012251 L2.71209801,13.4425727 L9.12251149,13.4425727 C9.72046756,13.4425727 10.2052067,13.9273119 10.2052067,14.525268 C10.2052067,15.1232241 9.72046756,15.6079632 9.12251149,15.6079632 L1.28571429,15.6079632 C0.575633893,15.6079632 1.03297689e-15,15.0323294 0,14.322249 L0,1.28571429 C1.35084837e-16,0.575633893 0.575633893,5.74528862e-16 1.28571429,0 L9.03675345,0 Z M23.2036753,0 C23.8075518,1.03681571e-15 24.2970904,0.489538574 24.2970904,1.09341501 C24.2970904,1.69729144 23.8075518,2.18683002 23.2036753,2.18683002 L19.4303216,2.18683002 L19.4303216,14.322249 C19.4303216,15.0323294 18.8546877,15.6079632 18.1446073,15.6079632 L18.0253774,15.6079632 C17.315297,15.6079632 16.7396631,15.0323294 16.7396631,14.322249 L16.7396631,2.18683002 L13.0091884,2.18683002 C12.4053119,2.18683002 11.9157734,1.69729144 11.9157734,1.09341501 C11.9157734,0.489538574 12.4053119,1.10930301e-16 13.0091884,0 L23.2036753,0 Z M35.5589587,0 C36.1628351,1.03681571e-15 36.6523737,0.489538574 36.6523737,1.09341501 C36.6523737,1.69729144 36.1628351,2.18683002 35.5589587,2.18683002 L29.4486983,2.18683002 L29.4486983,6.82848392 L34.6477795,6.82848392 C35.2457356,6.82848392 35.7304747,7.3132231 35.7304747,7.91117917 C35.7304747,8.50913525 35.2457356,8.99387443 34.6477795,8.99387443 L29.4486983,8.99387443 L29.4486983,14.322249 C29.4486983,15.0323294 28.8730644,15.6079632 28.162984,15.6079632 L28.0223146,15.6079632 C27.3122342,15.6079632 26.7366003,15.0323294 26.7366003,14.322249 L26.7366003,1.28571429 C26.7366003,0.575633893 27.3122342,5.74528862e-16 28.0223146,0 L35.5589587,0 Z" id="Combined-Shape"></path>
                                    <path d="M45.4379786,12.4563553 C45.4379786,11.9918302 45.2468115,11.6380819 44.8644717,11.3950995 C44.4821318,11.1521172 43.847886,10.9377243 42.9617152,10.7519142 C42.0755443,10.5661042 41.3358886,10.330272 40.7427259,10.0444104 C39.4420558,9.41551498 38.7917305,8.50434492 38.7917305,7.31087289 C38.7917305,6.31035743 39.21337,5.4742249 40.0566616,4.80245023 C40.8999532,4.13067556 41.9719179,3.79479326 43.2725881,3.79479326 C44.6590166,3.79479326 45.7792198,4.13782199 46.6332312,4.82388974 C47.4872427,5.50995749 47.914242,6.39968825 47.914242,7.49310873 L45.3093415,7.49310873 C45.3093415,6.992851 45.1235343,6.57657134 44.7519142,6.24425727 C44.3802942,5.91194321 43.8871904,5.74578867 43.2725881,5.74578867 C42.7008649,5.74578867 42.2345603,5.87799766 41.87366,6.1424196 C41.5127598,6.40684155 41.3323124,6.76058992 41.3323124,7.20367534 C41.3323124,7.60388153 41.5002536,7.91475132 41.8361409,8.13629403 C42.1720282,8.35783674 42.8509392,8.58116273 43.8728943,8.80627871 C44.8948494,9.03139469 45.6970364,9.29938589 46.2794793,9.61026034 C46.8619223,9.92113479 47.2942814,10.2945358 47.5765697,10.7304747 C47.858858,11.1664136 48,11.6952496 48,12.3169985 C48,13.3603932 47.5676409,14.2054587 46.7029096,14.8522205 C45.8381784,15.4989823 44.705469,15.8223583 43.3047473,15.8223583 C42.3542576,15.8223583 41.5074055,15.650844 40.7641654,15.3078101 C40.0209253,14.9647762 39.4420643,14.4931117 39.0275651,13.8928025 C38.6130658,13.2924932 38.4058193,12.6457411 38.4058193,11.9525268 L40.9356815,11.9525268 C40.9714142,12.5671292 41.2036732,13.0405803 41.6324655,13.3728943 C42.0612579,13.7052084 42.6293992,13.8713629 43.3369066,13.8713629 C44.0229743,13.8713629 44.5446639,13.7409406 44.9019908,13.4800919 C45.2593178,13.2192432 45.4379786,12.8780011 45.4379786,12.4563553 Z" id="Path" opacity="0.5"></path>
                                </g>
                            </g>
                        </g>
                    </g>
                </g>
            </g>
        </g>
    </g>
</svg>